<svg xmlns="http://www.w3.org/2000/svg" viewBox="0 0 32 32">
  <defs>
    <linearGradient id="grad" x1="0%" y1="0%" x2="100%" y2="100%">
      <stop offset="0%" style="stop-color:#22D3EE;stop-opacity:1" />
      <stop offset="100%" style="stop-color:#06B6D4;stop-opacity:1" />
    </linearGradient>
  </defs>
  <rect width="32" height="32" rx="6" fill="url(#grad)"/>
  <g fill="none" stroke="white" stroke-width="2" stroke-linecap="round" stroke-linejoin="round">
    <path d="M8 16h16M8 16a2.67 2.67 0 1 0 0-5.33 2.67 2.67 0 0 0 0 5.33zM8 16a2.67 2.67 0 1 1 0 5.33 2.67 2.67 0 0 1 0-5.33zM24 16a2.67 2.67 0 1 0 0-5.33 2.67 2.67 0 0 0 0 5.33zM24 16a2.67 2.67 0 1 1 0 5.33 2.67 2.67 0 0 1 0-5.33z"/>
  </g>
</svg>

